<?xml version="1.0" encoding="UTF-8"?>
<svg id="Layer_1" xmlns="http://www.w3.org/2000/svg" viewBox="0 0 1080 341.61">
  <defs>
    <style>
      .cls-1 {
        font-family: Glastone-Regular, Glastone;
        font-size: 279.7px;
      }

      .cls-2 {
        font-family: Aviator-Bold, Aviator;
        font-size: 28.38px;
        font-weight: 700;
      }
    </style>
  </defs>
  <text class="cls-1" transform="translate(376.38 258.35)"><tspan x="0" y="0">Milira</tspan></text>
  <text class="cls-2" transform="translate(391.96 305.32)"><tspan x="0" y="0">FINE 92.5 SILVER</tspan></text>
  <g>
    <path d="M189.61,68.85c5.51-5.51,8.88-12.54,10.1-21.11,1.23,8.57,4.67,15.68,10.33,21.34,5.66,5.66,12.93,9.11,21.8,10.33-8.87,1.53-16.06,5.05-21.57,10.56-5.51,5.51-8.87,12.55-10.1,21.11-1.22-8.56-4.66-15.68-10.33-21.34-5.66-5.66-12.92-9.25-21.8-10.78,8.88-1.22,16.06-4.59,21.57-10.1Z"/>
    <path d="M149.89,266.69c4.31-21.57,13.91-55.5,37.16-91.13,24.43-37.45,53.83-61.3,75.49-75.49,32.09-21.01,62.44-30.78,82.53-35.59-.26,45.76-.52,91.53-.78,137.29-.01,2.42-.09,6.96-.78,12.91-4.7,40.62-27.94,65.52-27.94,65.52-21.11,22.64-47.23,28.77-57.39,30.59,15.19-6.48,25.56-14.67,31.76-20.39,7.12-6.57,11.69-12.59,14.46-16.26,5.13-6.8,12.23-16.21,17-30.06,3.97-11.53,4.55-20.98,5.29-32.91.76-12.34.03-21.62,0-24.25-.39-32.07-.78-64.15-1.17-96.22-10.63,3.76-24.65,9.46-40.29,17.99-9.15,4.99-40.63,22.85-72.36,56.71-34.38,36.7-52.95,75.01-62.97,101.3Z"/>
    <path d="M191.73,149.96c-7.45-9.18-17.61-20.34-30.9-31.68-16.94-14.45-31.97-23.24-38.72-26.99-19.47-10.81-38.4-17.62-55.15-21.9-.21,20.18-.7,72.15-.39,132.2.03,6.33.17,18.24,3.98,33.14,2.35,9.18,6.97,26.49,20.68,43.41,16.08,19.84,36.01,28.47,46.32,32.05-8.72-5.81-21.1-15.78-31.49-31.54-11.52-17.48-15-33.67-16.82-42.24-1.92-9.09-2.22-17.52-2.74-34.03-.7-22.21-.05-36.43.39-57.5.24-11.6.49-28.67.39-49.67,13.68,4.91,24.92,9.8,33.25,13.69,17.51,8.18,30.42,15.81,42.63,23.08,11.78,7.01,21.48,13.28,28.55,17.99Z"/>
  </g>
</svg>